<svg width="56" height="56" viewBox="0 0 56 56" fill="none" xmlns="http://www.w3.org/2000/svg">
<g opacity="0.69" filter="url(#filter0_di_2163_441)">
<circle cx="28" cy="26" r="22" fill="#5686C4" fill-opacity="0.23" shape-rendering="crispEdges"/>
<circle cx="28" cy="26" r="21.5" stroke="url(#paint0_linear_2163_441)" shape-rendering="crispEdges"/>
<circle cx="28" cy="26" r="21.5" stroke="url(#paint1_radial_2163_441)" stroke-opacity="0.2" shape-rendering="crispEdges"/>
</g>
<g filter="url(#filter1_di_2163_441)">
<path d="M25.7813 28.6227L21.8472 32.5567" stroke="url(#paint2_linear_2163_441)" stroke-width="2" stroke-linejoin="round"/>
<path d="M25.5107 23.5522L21.4969 19.1185" stroke="url(#paint3_linear_2163_441)" stroke-width="2" stroke-linejoin="round"/>
<path d="M31.0267 28.6227L35.5073 34.2175" stroke="url(#paint4_linear_2163_441)" stroke-width="2" stroke-linejoin="round"/>
<path d="M35.7537 18.7651L34.2167 20.2467L32.4196 20.4092L31.0267 23.3772" stroke="url(#paint5_linear_2163_441)" stroke-width="2" stroke-linejoin="round"/>
<path d="M28.404 29.9341C30.5767 29.9341 32.338 28.1727 32.338 26C32.338 23.8273 30.5767 22.0659 28.404 22.0659C26.2313 22.0659 24.4699 23.8273 24.4699 26C24.4699 28.1727 26.2313 29.9341 28.404 29.9341Z" stroke="url(#paint6_linear_2163_441)" stroke-width="2"/>
<path d="M36.2721 36.4908C36.9964 36.4908 37.5835 35.9036 37.5835 35.1794C37.5835 34.4552 36.9964 33.868 36.2721 33.868C35.5479 33.868 34.9608 34.4552 34.9608 35.1794C34.9608 35.9036 35.5479 36.4908 36.2721 36.4908Z" stroke="url(#paint7_linear_2163_441)" stroke-width="2"/>
<path d="M37.5835 19.4432C39.0319 19.4432 40.2062 18.2689 40.2062 16.8205C40.2062 15.372 39.0319 14.1978 37.5835 14.1978C36.135 14.1978 34.9608 15.372 34.9608 16.8205C34.9608 18.2689 36.135 19.4432 37.5835 19.4432Z" stroke="url(#paint8_linear_2163_441)" stroke-width="2"/>
<path d="M19.8801 14.6978C21.4145 14.6978 22.6584 15.9416 22.6584 17.4761C22.6584 19.0105 21.4146 20.2544 19.8801 20.2544C18.3457 20.2544 17.1018 19.0105 17.1018 17.4761C17.1018 15.9417 18.3457 14.6978 19.8801 14.6978Z" stroke="url(#paint9_linear_2163_441)"/>
<path d="M19.8802 37.8021C21.6908 37.8021 23.1586 36.3344 23.1586 34.5238C23.1586 32.7131 21.6908 31.2454 19.8802 31.2454C18.0696 31.2454 16.6018 32.7131 16.6018 34.5238C16.6018 36.3344 18.0696 37.8021 19.8802 37.8021Z" stroke="url(#paint10_linear_2163_441)" stroke-width="2"/>
</g>
<defs>
<filter id="filter0_di_2163_441" x="0" y="0" width="56" height="56" filterUnits="userSpaceOnUse" color-interpolation-filters="sRGB">
<feFlood flood-opacity="0" result="BackgroundImageFix"/>
<feColorMatrix in="SourceAlpha" type="matrix" values="0 0 0 0 0 0 0 0 0 0 0 0 0 0 0 0 0 0 127 0" result="hardAlpha"/>
<feMorphology radius="2" operator="dilate" in="SourceAlpha" result="effect1_dropShadow_2163_441"/>
<feOffset dy="2"/>
<feGaussianBlur stdDeviation="2"/>
<feComposite in2="hardAlpha" operator="out"/>
<feColorMatrix type="matrix" values="0 0 0 0 0 0 0 0 0 0 0 0 0 0 0 0 0 0 0.25 0"/>
<feBlend mode="normal" in2="BackgroundImageFix" result="effect1_dropShadow_2163_441"/>
<feBlend mode="normal" in="SourceGraphic" in2="effect1_dropShadow_2163_441" result="shape"/>
<feColorMatrix in="SourceAlpha" type="matrix" values="0 0 0 0 0 0 0 0 0 0 0 0 0 0 0 0 0 0 127 0" result="hardAlpha"/>
<feOffset dy="2"/>
<feGaussianBlur stdDeviation="2"/>
<feComposite in2="hardAlpha" operator="arithmetic" k2="-1" k3="1"/>
<feColorMatrix type="matrix" values="0 0 0 0 0 0 0 0 0 0 0 0 0 0 0 0 0 0 0.5 0"/>
<feBlend mode="normal" in2="shape" result="effect2_innerShadow_2163_441"/>
</filter>
<filter id="filter1_di_2163_441" x="11.6018" y="13.1978" width="33.6044" height="33.6044" filterUnits="userSpaceOnUse" color-interpolation-filters="sRGB">
<feFlood flood-opacity="0" result="BackgroundImageFix"/>
<feColorMatrix in="SourceAlpha" type="matrix" values="0 0 0 0 0 0 0 0 0 0 0 0 0 0 0 0 0 0 127 0" result="hardAlpha"/>
<feOffset dy="4"/>
<feGaussianBlur stdDeviation="2"/>
<feComposite in2="hardAlpha" operator="out"/>
<feColorMatrix type="matrix" values="0 0 0 0 0 0 0 0 0 0 0 0 0 0 0 0 0 0 0.5 0"/>
<feBlend mode="normal" in2="BackgroundImageFix" result="effect1_dropShadow_2163_441"/>
<feBlend mode="normal" in="SourceGraphic" in2="effect1_dropShadow_2163_441" result="shape"/>
<feColorMatrix in="SourceAlpha" type="matrix" values="0 0 0 0 0 0 0 0 0 0 0 0 0 0 0 0 0 0 127 0" result="hardAlpha"/>
<feOffset dy="4"/>
<feGaussianBlur stdDeviation="2"/>
<feComposite in2="hardAlpha" operator="arithmetic" k2="-1" k3="1"/>
<feColorMatrix type="matrix" values="0 0 0 0 0.569157 0 0 0 0 0.716716 0 0 0 0 0.822115 0 0 0 0.5 0"/>
<feBlend mode="normal" in2="shape" result="effect2_innerShadow_2163_441"/>
</filter>
<linearGradient id="paint0_linear_2163_441" x1="17.3548" y1="6.83871" x2="38.6452" y2="45.871" gradientUnits="userSpaceOnUse">
<stop stop-color="white"/>
<stop offset="0.0528846" stop-color="#78A5C9"/>
<stop offset="0.216346" stop-color="#171717"/>
<stop offset="0.673077" stop-color="#151515"/>
<stop offset="0.932692" stop-color="#BEB4A9"/>
<stop offset="1" stop-color="white"/>
</linearGradient>
<radialGradient id="paint1_radial_2163_441" cx="0" cy="0" r="1" gradientUnits="userSpaceOnUse" gradientTransform="translate(28 26) rotate(90) scale(22)">
<stop/>
<stop offset="0.9375"/>
<stop offset="0.953125" stop-opacity="0.08"/>
<stop offset="0.96875" stop-opacity="0"/>
<stop offset="1"/>
</radialGradient>
<linearGradient id="paint2_linear_2163_441" x1="23.8142" y1="28.6227" x2="23.8142" y2="32.5567" gradientUnits="userSpaceOnUse">
<stop stop-color="#88929E"/>
<stop offset="0.716346" stop-color="#7E8792"/>
<stop offset="1" stop-color="#555555"/>
</linearGradient>
<linearGradient id="paint3_linear_2163_441" x1="23.5038" y1="19.1185" x2="23.5038" y2="23.5522" gradientUnits="userSpaceOnUse">
<stop stop-color="#88929E"/>
<stop offset="0.716346" stop-color="#7E8792"/>
<stop offset="1" stop-color="#555555"/>
</linearGradient>
<linearGradient id="paint4_linear_2163_441" x1="33.267" y1="28.6227" x2="33.267" y2="34.2175" gradientUnits="userSpaceOnUse">
<stop stop-color="#88929E"/>
<stop offset="0.716346" stop-color="#7E8792"/>
<stop offset="1" stop-color="#555555"/>
</linearGradient>
<linearGradient id="paint5_linear_2163_441" x1="33.3902" y1="18.7651" x2="33.3902" y2="23.3772" gradientUnits="userSpaceOnUse">
<stop stop-color="#88929E"/>
<stop offset="0.716346" stop-color="#7E8792"/>
<stop offset="1" stop-color="#555555"/>
</linearGradient>
<linearGradient id="paint6_linear_2163_441" x1="28.404" y1="22.0659" x2="28.404" y2="29.9341" gradientUnits="userSpaceOnUse">
<stop stop-color="#88929E"/>
<stop offset="0.716346" stop-color="#7E8792"/>
<stop offset="1" stop-color="#555555"/>
</linearGradient>
<linearGradient id="paint7_linear_2163_441" x1="36.2721" y1="33.868" x2="36.2721" y2="36.4908" gradientUnits="userSpaceOnUse">
<stop stop-color="#88929E"/>
<stop offset="0.716346" stop-color="#7E8792"/>
<stop offset="1" stop-color="#555555"/>
</linearGradient>
<linearGradient id="paint8_linear_2163_441" x1="37.5835" y1="14.1978" x2="37.5835" y2="19.4432" gradientUnits="userSpaceOnUse">
<stop stop-color="#88929E"/>
<stop offset="0.716346" stop-color="#7E8792"/>
<stop offset="1" stop-color="#555555"/>
</linearGradient>
<linearGradient id="paint9_linear_2163_441" x1="19.8802" y1="14.1978" x2="19.8802" y2="20.7545" gradientUnits="userSpaceOnUse">
<stop stop-color="#88929E"/>
<stop offset="0.716346" stop-color="#7E8792"/>
<stop offset="1" stop-color="#555555"/>
</linearGradient>
<linearGradient id="paint10_linear_2163_441" x1="19.8802" y1="31.2454" x2="19.8802" y2="37.8021" gradientUnits="userSpaceOnUse">
<stop stop-color="#88929E"/>
<stop offset="0.716346" stop-color="#7E8792"/>
<stop offset="1" stop-color="#555555"/>
</linearGradient>
</defs>
</svg>
