<?xml version="1.0" encoding="UTF-8" standalone="no"?>
<svg
   width="25.605471"
   height="25.605469"
   viewBox="0 0 25.605471 25.605469"
   fill="none"
   version="1.1"
   id="svg55"
   sodipodi:docname="button_mindmapping.svg"
   xmlns:inkscape="http://www.inkscape.org/namespaces/inkscape"
   xmlns:sodipodi="http://sodipodi.sourceforge.net/DTD/sodipodi-0.dtd"
   xmlns="http://www.w3.org/2000/svg"
   xmlns:svg="http://www.w3.org/2000/svg">
  <sodipodi:namedview
     id="namedview55"
     pagecolor="#505050"
     bordercolor="#eeeeee"
     borderopacity="1"
     inkscape:showpageshadow="0"
     inkscape:pageopacity="0"
     inkscape:pagecheckerboard="0"
     inkscape:deskcolor="#505050">
    <inkscape:page
       x="0"
       y="0"
       width="25.605471"
       height="25.605469"
       id="page2"
       margin="0"
       bleed="0" />
  </sodipodi:namedview>
  <g
     opacity="0.69"
     filter="url(#filter0_di_2163_441)"
     id="g3"
     transform="translate(-15.601562,-13.197266)" />
  <g
     filter="url(#filter1_di_2163_441)"
     id="g11"
     transform="translate(-15.601562,-13.197266)">
    <path
       id="path3"
       style="fill:url(#paint2_linear_2163_441);stroke-linejoin:round"
       d="m 37.583984,13.197266 c -1.988921,0 -3.623046,1.634125 -3.623046,3.623046 0,0.658332 0.180497,1.276342 0.492187,1.810547 l -0.677734,0.652344 -1.445313,0.130859 a 1.0001,1.0001 0 0 0 -0.816406,0.570313 l -0.783203,1.669922 c -0.694311,-0.374462 -1.4861,-0.587891 -2.326172,-0.587891 -1.090815,0 -2.102629,0.359299 -2.921875,0.964844 l -2.716797,-3.001953 c 0.25025,-0.462497 0.392578,-0.991877 0.392578,-1.552735 0,-1.804707 -1.47274,-3.279296 -3.277344,-3.279296 -1.804625,0 -3.279297,1.474672 -3.279297,3.279296 0,1.804626 1.474672,3.277344 3.279297,3.277344 0.517746,0 1.007206,-0.122405 1.44336,-0.33789 l 2.816406,3.111328 C 23.715284,24.255689 23.470703,25.100285 23.470703,26 c 0,0.996865 0.300649,1.926941 0.814453,2.705078 l -2.173828,2.173828 C 21.460623,30.47791 20.6965,30.246094 19.880859,30.246094 c -2.35101,0 -4.279297,1.926226 -4.279297,4.277344 0,2.351047 1.928287,4.279296 4.279297,4.279296 2.351011,0 4.277344,-1.928249 4.277344,-4.279296 0,-0.815678 -0.231804,-1.579765 -0.632812,-2.230469 l 2.173828,-2.173828 c 0.778137,0.513804 1.708213,0.814453 2.705078,0.814453 0.950723,0 1.84032,-0.273189 2.595703,-0.744141 l 3.193359,3.988281 c -0.148252,0.3039 -0.232421,0.644725 -0.232421,1.001954 0,1.264659 1.045796,2.310546 2.310546,2.310546 1.264776,0 2.3125,-1.045887 2.3125,-2.310546 0,-1.264658 -1.047724,-2.3125 -2.3125,-2.3125 -0.176874,0 -0.349576,0.02183 -0.515625,0.06055 L 32.455078,28.806641 C 33.010676,28.00856 33.337891,27.040401 33.337891,26 c 0,-1.127154 -0.384761,-2.168751 -1.027344,-3.001953 l 0.771484,-1.644531 1.22461,-0.111328 a 1.0001,1.0001 0 0 0 0.603515,-0.275391 l 0.982422,-0.947266 c 0.506146,0.270249 1.081725,0.423828 1.691406,0.423828 1.988905,0 3.623047,-1.634142 3.623047,-3.623047 0,-1.988967 -1.634188,-3.623046 -3.623047,-3.623046 z m -17.703125,2 c 1.264197,0 2.277344,1.015005 2.277344,2.279296 0,1.264197 -1.013051,2.277344 -2.277344,2.277344 -1.264175,0 -2.279297,-1.013169 -2.279297,-2.277344 0,-1.264174 1.015122,-2.279296 2.279297,-2.279296 z m 17.703125,0 c 0.907942,0 1.623047,0.715014 1.623047,1.623046 0,0.907897 -0.715151,1.623047 -1.623047,1.623047 -0.908032,0 -1.623046,-0.715105 -1.623046,-1.623047 0,-0.908077 0.714968,-1.623046 1.623046,-1.623046 z m -9.179687,7.86914 c 1.632236,0 2.933594,1.301328 2.933594,2.933594 0,1.632266 -1.301358,2.933594 -2.933594,2.933594 -1.632236,0 -2.933594,-1.301358 -2.933594,-2.933594 0,-1.632236 1.301358,-2.933594 2.933594,-2.933594 z m -8.523438,9.179688 c 1.27019,0 2.277344,1.007061 2.277344,2.277344 0,1.270153 -1.007154,2.279296 -2.277344,2.279296 -1.270189,0 -2.279297,-1.009143 -2.279297,-2.279296 0,-1.270283 1.009108,-2.277344 2.279297,-2.277344 z m 16.390625,2.621094 c 0.183825,0 0.3125,0.128759 0.3125,0.3125 0,0.183742 -0.128675,0.310546 -0.3125,0.310546 -0.183649,0 -0.310546,-0.126804 -0.310546,-0.310546 0,-0.183741 0.126897,-0.3125 0.310546,-0.3125 z" />
  </g>
  <defs
     id="defs55">
    <filter
       id="filter0_di_2163_441"
       x="0"
       y="0"
       width="56"
       height="56"
       filterUnits="userSpaceOnUse"
       color-interpolation-filters="sRGB">
      <feFlood
         flood-opacity="0"
         result="BackgroundImageFix"
         id="feFlood11" />
      <feColorMatrix
         in="SourceAlpha"
         type="matrix"
         values="0 0 0 0 0 0 0 0 0 0 0 0 0 0 0 0 0 0 127 0"
         result="hardAlpha"
         id="feColorMatrix11" />
      <feMorphology
         radius="2"
         operator="dilate"
         in="SourceAlpha"
         result="effect1_dropShadow_2163_441"
         id="feMorphology11" />
      <feOffset
         dy="2"
         id="feOffset11" />
      <feGaussianBlur
         stdDeviation="2"
         id="feGaussianBlur11" />
      <feComposite
         in2="hardAlpha"
         operator="out"
         id="feComposite11" />
      <feColorMatrix
         type="matrix"
         values="0 0 0 0 0 0 0 0 0 0 0 0 0 0 0 0 0 0 0.25 0"
         id="feColorMatrix12" />
      <feBlend
         mode="normal"
         in2="BackgroundImageFix"
         result="effect1_dropShadow_2163_441"
         id="feBlend12" />
      <feBlend
         mode="normal"
         in="SourceGraphic"
         in2="effect1_dropShadow_2163_441"
         result="shape"
         id="feBlend13" />
      <feColorMatrix
         in="SourceAlpha"
         type="matrix"
         values="0 0 0 0 0 0 0 0 0 0 0 0 0 0 0 0 0 0 127 0"
         result="hardAlpha"
         id="feColorMatrix13" />
      <feOffset
         dy="2"
         id="feOffset13" />
      <feGaussianBlur
         stdDeviation="2"
         id="feGaussianBlur13" />
      <feComposite
         in2="hardAlpha"
         operator="arithmetic"
         k2="-1"
         k3="1"
         id="feComposite13"
         k1="0"
         k4="0" />
      <feColorMatrix
         type="matrix"
         values="0 0 0 0 0 0 0 0 0 0 0 0 0 0 0 0 0 0 0.5 0"
         id="feColorMatrix14" />
      <feBlend
         mode="normal"
         in2="shape"
         result="effect2_innerShadow_2163_441"
         id="feBlend14" />
    </filter>
    <filter
       id="filter1_di_2163_441"
       x="11.6018"
       y="13.1978"
       width="33.604401"
       height="33.604401"
       filterUnits="userSpaceOnUse"
       color-interpolation-filters="sRGB">
      <feFlood
         flood-opacity="0"
         result="BackgroundImageFix"
         id="feFlood14" />
      <feColorMatrix
         in="SourceAlpha"
         type="matrix"
         values="0 0 0 0 0 0 0 0 0 0 0 0 0 0 0 0 0 0 127 0"
         result="hardAlpha"
         id="feColorMatrix15" />
      <feOffset
         dy="4"
         id="feOffset15" />
      <feGaussianBlur
         stdDeviation="2"
         id="feGaussianBlur15" />
      <feComposite
         in2="hardAlpha"
         operator="out"
         id="feComposite15" />
      <feColorMatrix
         type="matrix"
         values="0 0 0 0 0 0 0 0 0 0 0 0 0 0 0 0 0 0 0.5 0"
         id="feColorMatrix16" />
      <feBlend
         mode="normal"
         in2="BackgroundImageFix"
         result="effect1_dropShadow_2163_441"
         id="feBlend16" />
      <feBlend
         mode="normal"
         in="SourceGraphic"
         in2="effect1_dropShadow_2163_441"
         result="shape"
         id="feBlend17" />
      <feColorMatrix
         in="SourceAlpha"
         type="matrix"
         values="0 0 0 0 0 0 0 0 0 0 0 0 0 0 0 0 0 0 127 0"
         result="hardAlpha"
         id="feColorMatrix17" />
      <feOffset
         dy="4"
         id="feOffset17" />
      <feGaussianBlur
         stdDeviation="2"
         id="feGaussianBlur17" />
      <feComposite
         in2="hardAlpha"
         operator="arithmetic"
         k2="-1"
         k3="1"
         id="feComposite17"
         k1="0"
         k4="0" />
      <feColorMatrix
         type="matrix"
         values="0 0 0 0 0.569157 0 0 0 0 0.716716 0 0 0 0 0.822115 0 0 0 0.5 0"
         id="feColorMatrix18" />
      <feBlend
         mode="normal"
         in2="shape"
         result="effect2_innerShadow_2163_441"
         id="feBlend18" />
    </filter>
    <linearGradient
       id="paint2_linear_2163_441"
       x1="23.814199"
       y1="28.6227"
       x2="23.814199"
       y2="32.556702"
       gradientUnits="userSpaceOnUse">
      <stop
         stop-color="#88929E"
         id="stop29" />
      <stop
         offset="0.716346"
         stop-color="#7E8792"
         id="stop30" />
      <stop
         offset="1"
         stop-color="#555555"
         id="stop31" />
    </linearGradient>
  </defs>
</svg>
